<svg xmlns="http://www.w3.org/2000/svg" width="680.0" height="320.0">
<style>
.room{fill:#f5f5f5;stroke:#444;stroke-width:2;}
.label{font-family:Arial,sans-serif;font-size:12px;fill:#444;}
.door{stroke:#1b5e20;stroke-width:2;fill:none;}
.door-arc{stroke:#43a047;stroke-width:1.5;fill:none;stroke-dasharray:4,3;}
.window{fill:#4fc3f7;stroke:#0277bd;stroke-width:2;}
</style>
<polygon class="room" points="40.0,280.0 340.0,280.0 340.0,40.0 40.0,40.0 40.0,280.0"/>
<text class="label" x="190.0" y="160.0" text-anchor="middle">Living</text>
<polygon class="room" points="340.0,280.0 640.0,280.0 640.0,40.0 340.0,40.0 340.0,280.0"/>
<text class="label" x="490.0" y="160.0" text-anchor="middle">Kitchen</text>
<line class="door" x1="340.0" y1="187.0" x2="286.0" y2="187.0"/>
<polyline class="door-arc" points="340.0,133.0 335.2935898916265,133.20548630304575 330.62299840598575,133.82038133734076 326.0237715644639,134.84000538039032 321.5309122604139,136.25659847756094 317.17861386600225,138.0593795000209 313.0,140.2346281956403 309.0268724370435,142.76578960839444 305.2894690769269,145.6336000715752 301.81623381592647,148.81623381592644 298.6336000715752,152.28946907692688 295.76578960839447,156.0268724370435 293.2346281956403,159.99999999999997 291.0593795000209,164.17861386600222 289.25659847756094,168.53091226041388 287.8400053803903,173.02377156446389 286.8203813373408,177.62299840598575 286.20548630304575,182.29358989162645 286.0,187.0"/>
<rect class="window" x="86.0" y="275.0" width="108.0" height="10" rx="2"/>
<line x1="90.0" y1="280.0" x2="190.0" y2="280.0" stroke="white" stroke-width="1"/>
<line x1="140.0" y1="276.0" x2="140.0" y2="284.0" stroke="white" stroke-width="1"/>
<rect class="window" x="86.0" y="35.0" width="108.0" height="10" rx="2"/>
<line x1="90.0" y1="40.0" x2="190.0" y2="40.0" stroke="white" stroke-width="1"/>
<line x1="140.0" y1="36.0" x2="140.0" y2="44.0" stroke="white" stroke-width="1"/>
<rect class="window" x="403.99999999999994" y="275.0" width="72.0" height="10" rx="2"/>
<line x1="407.99999999999994" y1="280.0" x2="471.99999999999994" y2="280.0" stroke="white" stroke-width="1"/>
<line x1="439.99999999999994" y1="276.0" x2="439.99999999999994" y2="284.0" stroke="white" stroke-width="1"/>
<rect class="window" x="504.0" y="275.0" width="72.0" height="10" rx="2"/>
<line x1="508.0" y1="280.0" x2="572.0" y2="280.0" stroke="white" stroke-width="1"/>
<line x1="540.0" y1="276.0" x2="540.0" y2="284.0" stroke="white" stroke-width="1"/>
<rect class="window" x="403.99999999999994" y="35.0" width="72.0" height="10" rx="2"/>
<line x1="407.99999999999994" y1="40.0" x2="471.99999999999994" y2="40.0" stroke="white" stroke-width="1"/>
<line x1="439.99999999999994" y1="36.0" x2="439.99999999999994" y2="44.0" stroke="white" stroke-width="1"/>
<rect class="window" x="504.0" y="35.0" width="72.0" height="10" rx="2"/>
<line x1="508.0" y1="40.0" x2="572.0" y2="40.0" stroke="white" stroke-width="1"/>
<line x1="540.0" y1="36.0" x2="540.0" y2="44.0" stroke="white" stroke-width="1"/>
<rect class="window" x="-14.0" y="155.0" width="108.0" height="10" rx="2"/>
<line x1="-10.0" y1="160.0" x2="90.0" y2="160.0" stroke="white" stroke-width="1"/>
<line x1="40.0" y1="156.0" x2="40.0" y2="164.0" stroke="white" stroke-width="1"/>
<rect class="window" x="604.0" y="195.00000000000003" width="72.0" height="10" rx="2"/>
<line x1="608.0" y1="200.00000000000003" x2="672.0" y2="200.00000000000003" stroke="white" stroke-width="1"/>
<line x1="640.0" y1="196.00000000000003" x2="640.0" y2="204.00000000000003" stroke="white" stroke-width="1"/>
<rect class="window" x="604.0" y="115.00000000000001" width="72.0" height="10" rx="2"/>
<line x1="608.0" y1="120.00000000000001" x2="672.0" y2="120.00000000000001" stroke="white" stroke-width="1"/>
<line x1="640.0" y1="116.00000000000001" x2="640.0" y2="124.00000000000001" stroke="white" stroke-width="1"/>
</svg>